<!DOCTYPE svg PUBLIC "-//W3C//DTD SVG 20010904//EN" "http://www.w3.org/TR/2001/REC-SVG-20010904/DTD/svg10.dtd">
<svg version="1.0" xmlns="http://www.w3.org/2000/svg" width="640px" height="640px" viewBox="0 0 6400 6400" preserveAspectRatio="xMidYMid meet">
<g id="layer101" fill="#020101" stroke="none">
 <path d="M0 3200 l0 -3200 3200 0 3200 0 0 3200 0 3200 -3200 0 -3200 0 0 -3200z"/>
 </g>
<g id="layer102" fill="#b84309" stroke="none">
 <path d="M2453 4127 c-32 -25 -85 -27 -111 -4 -19 18 -102 24 -102 8 0 -13 -29 -23 -73 -26 -21 -2 -46 -10 -56 -19 -10 -9 -34 -19 -54 -23 -42 -6 -137 -98 -137 -131 0 -15 -12 -28 -37 -41 -52 -27 -209 -184 -217 -217 -8 -31 -82 -106 -123 -126 -15 -7 -35 -27 -43 -44 -8 -16 -99 -114 -202 -216 -149 -147 -188 -191 -188 -212 0 -14 -9 -35 -20 -46 -16 -16 -20 -33 -20 -80 0 -39 5 -62 14 -67 7 -4 19 -25 26 -46 8 -26 20 -41 38 -48 36 -14 120 -97 136 -134 13 -30 34 -53 252 -275 68 -69 127 -136 132 -149 10 -29 38 -60 220 -245 102 -104 150 -146 166 -146 13 0 31 -9 41 -20 10 -11 26 -20 37 -20 10 0 35 -9 55 -20 36 -19 57 -20 476 -20 411 0 441 1 480 19 41 19 75 20 810 21 422 0 775 -3 785 -8 28 -14 108 15 144 53 73 74 67 37 70 410 3 305 5 343 21 365 23 32 23 126 1 151 -9 10 -16 34 -16 54 0 20 7 44 16 54 14 16 16 73 16 517 0 406 -3 503 -14 519 -7 11 -17 31 -21 45 -10 34 -34 60 -56 60 -10 0 -24 9 -31 19 -8 11 -26 25 -41 32 -15 7 -27 16 -27 20 0 5 -453 10 -1007 11 -952 3 -1009 4 -1035 21 -25 18 -27 17 -64 -2 -48 -26 -65 -26 -95 -2 -13 10 -45 20 -72 23 -38 5 -53 2 -74 -15z m111 -336 c17 -10 48 -21 68 -24 30 -4 42 -1 63 19 l26 24 633 0 c626 0 634 0 660 -21 29 -23 129 -38 140 -21 4 7 17 7 40 0 31 -10 38 -8 67 17 32 27 35 27 143 23 118 -4 153 -17 219 -77 l27 -25 0 -737 c0 -643 -2 -738 -15 -749 -8 -7 -19 -26 -23 -43 -6 -22 -16 -33 -37 -38 -15 -5 -32 -14 -36 -21 -12 -19 -171 -24 -190 -6 -8 8 -30 20 -49 28 -19 8 -47 26 -61 40 -22 22 -24 28 -14 52 6 15 19 34 29 41 16 12 18 25 15 99 -4 96 -17 119 -78 145 -19 8 -84 64 -143 124 -60 60 -113 109 -119 109 -6 0 -17 7 -25 15 -9 8 -23 15 -32 15 -9 1 -30 19 -47 40 -16 22 -38 42 -47 45 -15 5 -18 19 -18 82 l0 75 48 46 c26 26 64 55 84 64 21 9 112 91 208 185 l170 169 0 55 c0 65 -5 74 -51 93 -20 8 -41 22 -49 30 -16 21 -27 20 -57 -4 -14 -11 -40 -20 -57 -20 -37 0 -106 -41 -155 -94 -19 -20 -41 -36 -49 -36 -8 0 -41 -26 -73 -57 -33 -32 -68 -62 -77 -66 -9 -5 -30 -26 -47 -47 -16 -21 -40 -41 -52 -44 -35 -10 -93 -47 -104 -67 -18 -35 -90 -25 -193 27 -72 37 -108 63 -174 130 -46 46 -88 84 -93 84 -6 0 -27 18 -48 40 -21 22 -46 40 -56 40 -9 0 -34 18 -54 39 -57 62 -143 131 -163 131 -9 0 -22 -9 -28 -20 -6 -11 -20 -20 -32 -20 -11 0 -38 -18 -60 -40 l-40 -40 3 -78 c4 -76 5 -79 41 -111 20 -18 40 -40 43 -49 6 -17 68 -62 86 -62 8 0 42 -28 163 -136 15 -14 40 -31 54 -37 29 -13 81 -66 82 -82 0 -5 11 -23 24 -40 21 -25 23 -37 19 -78 -5 -43 -13 -55 -73 -113 -64 -63 -88 -81 -139 -104 -13 -6 -42 -30 -65 -53 -22 -23 -58 -51 -78 -61 -21 -11 -38 -23 -38 -28 0 -5 -15 -18 -34 -29 -53 -31 -86 -95 -86 -167 0 -44 5 -66 19 -84 11 -14 23 -48 27 -77 8 -61 0 -71 -58 -71 -21 0 -44 -7 -54 -17 -12 -13 -38 -19 -88 -21 -65 -4 -77 -1 -131 29 -33 18 -75 45 -93 61 -18 15 -39 28 -46 28 -7 0 -68 53 -134 118 -89 86 -122 125 -122 143 0 17 -32 55 -110 133 -61 60 -110 112 -110 117 0 5 -5 9 -10 9 -22 0 -110 99 -110 123 0 13 -12 34 -26 46 -23 20 -26 29 -21 67 2 25 14 54 25 67 11 12 57 60 101 106 45 47 84 94 87 105 7 23 42 60 312 329 136 135 189 182 208 182 13 1 31 11 40 23 14 21 23 22 141 22 105 0 131 -3 157 -19z m886 -1105 c6 -8 27 -20 46 -26 19 -7 45 -22 58 -33 78 -73 107 -97 121 -97 9 0 49 -33 89 -72 121 -120 154 -148 174 -148 10 0 31 -13 46 -29 22 -23 28 -39 28 -75 1 -26 -4 -52 -10 -58 -7 -7 -55 -10 -130 -9 -98 1 -123 -1 -136 -14 -27 -28 -83 -31 -116 -6 -38 27 -121 29 -155 3 -20 -16 -48 -18 -223 -20 -184 -3 -201 -1 -211 15 -8 15 -26 18 -122 20 -62 1 -118 4 -126 7 -27 11 -14 58 29 105 23 25 47 48 53 50 5 2 31 26 56 53 26 26 54 48 62 48 16 0 46 25 162 137 60 58 85 75 145 104 14 6 45 22 70 35 52 27 73 30 90 10z"/>
 </g>
<g id="layer103" fill="#f1ed1f" stroke="none">
 <path d="M2135 4080 c-13 -14 -31 -20 -60 -20 -37 0 -46 -5 -81 -45 -21 -24 -45 -45 -51 -45 -8 0 -13 -14 -13 -35 0 -22 -6 -38 -17 -44 -10 -5 -70 -62 -133 -126 -63 -63 -139 -139 -168 -168 -29 -29 -65 -65 -80 -80 -15 -15 -113 -115 -218 -221 -188 -189 -192 -194 -199 -244 -4 -29 -13 -53 -21 -56 -18 -7 -18 -30 1 -46 9 -8 15 -30 15 -56 0 -42 4 -48 76 -117 42 -39 88 -85 103 -102 14 -16 47 -51 74 -77 26 -26 47 -55 47 -65 0 -10 77 -97 172 -193 99 -101 172 -184 174 -197 1 -12 60 -79 137 -157 103 -104 141 -136 160 -136 15 0 32 -9 42 -22 l15 -23 1353 3 c1100 3 1353 6 1359 17 4 7 20 16 35 20 38 9 53 23 53 49 0 12 9 29 20 39 20 17 20 29 20 1020 l0 1003 -55 52 c-30 29 -63 52 -73 52 -11 0 -27 9 -37 20 -18 20 -31 20 -1325 20 -1294 0 -1307 0 -1325 -20z m514 -291 l19 -21 14 21 13 21 671 0 c658 0 671 0 689 -20 10 -11 28 -20 40 -20 12 0 32 9 45 20 21 18 37 20 210 20 206 0 197 2 278 -75 l32 -30 0 -746 0 -746 -27 -34 c-60 -77 -76 -84 -194 -84 -98 0 -110 2 -131 23 -14 12 -35 22 -49 22 -15 0 -34 12 -51 33 l-26 34 39 43 c37 41 39 45 39 111 l0 69 -47 42 c-27 24 -96 91 -155 150 -65 66 -117 110 -135 114 -26 6 -44 19 -76 52 -6 7 -31 32 -54 55 -42 41 -43 43 -43 110 l0 68 72 70 c40 38 84 72 98 76 14 3 75 55 135 116 61 60 121 119 136 131 14 12 28 29 32 39 3 9 13 17 22 17 12 0 15 12 15 55 0 48 -4 59 -27 80 -25 22 -38 24 -114 25 -73 0 -89 -3 -104 -20 -10 -11 -27 -20 -38 -20 -11 0 -40 -20 -66 -44 -25 -24 -75 -71 -110 -105 -35 -34 -72 -61 -82 -61 -10 0 -47 -29 -83 -65 -38 -38 -74 -65 -86 -65 -11 0 -30 -11 -42 -25 -19 -22 -30 -25 -83 -25 -49 0 -68 5 -95 25 -19 14 -42 25 -51 25 -10 0 -65 47 -124 105 -58 58 -114 105 -123 105 -9 0 -58 38 -107 85 -50 46 -98 85 -109 85 -10 0 -36 18 -58 40 -22 22 -42 40 -43 40 -1 0 -35 -30 -74 -67 -69 -64 -71 -68 -71 -114 0 -41 5 -51 40 -87 22 -22 40 -49 40 -60 0 -23 15 -37 51 -46 15 -3 51 -30 80 -59 30 -30 65 -58 79 -62 29 -9 111 -82 214 -193 48 -51 48 -51 27 -69 -12 -9 -21 -29 -21 -42 0 -30 -188 -221 -218 -221 -10 0 -58 -38 -107 -84 -56 -55 -97 -86 -114 -88 -20 -2 -27 -9 -29 -29 -2 -15 -12 -35 -23 -45 -25 -23 -28 -118 -3 -132 9 -5 19 -24 23 -43 l7 -34 69 -3 69 -3 38 40 c20 22 49 44 64 47 15 4 63 42 107 86 44 43 91 81 105 85 14 3 54 34 88 67 82 82 114 106 140 106 11 0 29 9 39 20 15 16 31 20 86 20 58 0 70 -3 79 -20 6 -11 15 -20 20 -20 5 0 20 -11 34 -25 14 -14 34 -25 44 -25 10 0 35 -17 55 -37 109 -113 176 -173 193 -173 17 0 127 -99 191 -171 l23 -25 -52 -54 -51 -54 -583 0 -584 -1 -15 23 c-15 20 -24 22 -102 22 -74 0 -90 -3 -109 -21 -20 -18 -38 -22 -146 -26 -122 -5 -123 -5 -151 21 -15 14 -37 26 -49 26 -22 0 -37 13 -224 197 -88 86 -124 128 -124 145 0 22 -111 141 -282 303 -44 41 -58 61 -58 82 0 17 -8 33 -20 41 -16 10 -20 23 -20 67 0 44 4 56 20 65 11 6 20 21 20 34 0 23 50 77 336 366 306 309 328 330 356 330 17 0 31 8 38 20 10 19 21 20 190 20 169 0 180 -1 199 -21z"/>
 </g>
<g id="layer104" fill="#fbfcd4" stroke="none">
 <path d="M2110 3977 c-27 -23 -52 -53 -55 -67 -10 -42 -20 -54 -51 -62 -38 -10 -102 -73 -125 -123 -26 -56 -37 -67 -102 -99 -47 -23 -58 -32 -55 -50 3 -19 10 -21 69 -24 l65 -3 52 52 c31 31 52 61 52 73 0 27 101 126 128 126 22 0 42 19 42 40 0 23 24 41 90 70 30 13 67 32 82 42 20 14 46 18 106 18 96 0 142 8 142 25 0 22 -28 25 -212 25 l-179 -1 -49 -42z"/>
 <path d="M2875 4011 c-5 -9 62 -60 95 -73 30 -11 60 9 60 41 0 21 -6 30 -22 35 -35 9 -126 7 -133 -3z"/>
 <path d="M3137 4009 c-14 -8 -15 -14 -7 -24 8 -9 38 -12 111 -10 98 3 128 12 115 34 -9 14 -195 14 -219 0z"/>
 <path d="M3484 4008 c-8 -13 22 -38 45 -38 26 0 44 17 38 34 -7 19 -72 22 -83 4z"/>
 <path d="M4690 3995 c-8 -9 -30 -15 -57 -15 -59 0 -68 -23 -25 -62 18 -15 41 -28 52 -28 15 0 28 -17 50 -66 26 -59 30 -78 30 -159 0 -77 3 -96 20 -118 25 -31 25 -55 3 -80 -17 -18 -18 -68 -23 -663 l-5 -645 -50 -50 c-27 -27 -59 -59 -69 -69 -11 -11 -27 -21 -35 -21 -9 -1 -357 -2 -773 -3 l-757 -1 -21 -22 c-32 -35 -117 -28 -142 11 -4 6 -49 12 -103 13 -87 3 -100 1 -139 -22 -37 -21 -55 -25 -127 -25 -71 1 -90 4 -124 25 -23 14 -55 25 -76 25 -21 0 -47 8 -62 20 -14 11 -40 20 -58 20 -21 0 -59 16 -103 42 -77 45 -86 53 -86 83 0 12 -61 80 -156 175 -86 85 -170 171 -187 190 -18 19 -69 70 -115 114 -90 86 -123 140 -121 196 0 19 -4 51 -10 70 -6 19 -11 65 -11 102 l0 66 51 50 c46 45 119 167 119 198 0 7 -10 20 -22 28 -28 20 -55 5 -66 -37 -6 -24 -16 -35 -39 -42 -46 -15 -73 -43 -99 -102 -20 -45 -28 -53 -63 -63 -43 -11 -104 -71 -95 -93 2 -7 -4 -22 -16 -32 -25 -23 -25 -40 1 -73 12 -16 18 -34 15 -47 -9 -35 16 -58 70 -64 43 -5 49 -9 52 -31 5 -34 17 -47 51 -53 21 -4 30 -14 35 -34 4 -15 29 -50 56 -78 27 -27 56 -67 64 -87 17 -39 50 -68 78 -68 12 0 18 -8 18 -22 0 -32 11 -45 43 -53 19 -5 32 -18 42 -43 18 -41 59 -82 84 -82 22 0 41 -19 41 -42 0 -27 107 -128 134 -128 28 0 76 -43 76 -68 0 -24 42 -80 89 -117 l38 -31 1118 -3 1117 -3 39 27 c37 26 43 27 138 23 88 -3 103 -6 121 -26 27 -28 48 -28 90 3 19 14 42 25 51 25 24 0 29 20 29 123 0 51 5 109 11 131 8 27 8 41 0 49 -8 8 -11 258 -11 834 0 697 -2 829 -14 858 -8 19 -21 35 -29 35 -8 0 -35 11 -61 25 -55 29 -60 30 -76 10z"/>
 <path d="M4420 3965 c-26 -31 39 -51 79 -26 12 8 12 12 2 25 -17 20 -65 21 -81 1z"/>
 <path d="M2711 3586 c-8 -10 -8 -20 4 -42 8 -16 15 -45 15 -64 0 -42 15 -60 47 -60 13 0 31 -12 45 -30 12 -16 26 -30 31 -30 6 0 24 -17 42 -37 29 -34 34 -36 58 -26 34 16 44 49 22 73 -10 11 -20 34 -24 52 -6 31 -10 33 -55 39 -51 5 -90 37 -80 64 3 8 -12 25 -40 44 -51 36 -50 35 -65 17z"/>
 <path d="M4051 3484 c-19 -13 -42 -24 -52 -24 -10 0 -23 -9 -29 -20 -11 -20 -56 -48 -96 -59 -34 -10 -103 -97 -97 -121 5 -18 11 -20 52 -15 25 3 55 8 66 10 27 6 230 211 230 233 0 26 -35 24 -74 -4z"/>
 <path d="M1629 3446 c-13 -28 -6 -56 14 -56 7 0 24 11 37 25 25 27 21 38 -17 50 -18 5 -25 1 -34 -19z"/>
 <path d="M3037 3313 c-13 -13 -7 -40 18 -73 14 -19 25 -42 25 -51 0 -10 13 -27 29 -38 16 -12 35 -38 42 -58 7 -21 20 -51 30 -68 23 -36 25 -88 4 -105 -19 -16 -20 -59 -1 -66 8 -3 17 -17 21 -32 4 -15 12 -30 18 -34 7 -4 81 -8 165 -8 169 0 190 -5 237 -62 40 -48 64 -63 78 -49 29 29 76 -6 56 -42 -14 -25 5 -54 41 -62 18 -4 51 -28 82 -61 51 -54 74 -64 95 -43 19 19 33 0 33 -41 0 -31 5 -43 25 -56 24 -16 27 -16 45 1 23 21 28 86 7 103 -6 6 -28 12 -47 14 -23 2 -36 9 -38 20 -6 29 -254 275 -286 282 -16 4 -41 20 -57 36 -29 28 -29 29 -29 154 0 160 7 154 -184 156 -118 0 -142 3 -165 19 -14 10 -36 22 -49 26 -13 3 -54 38 -91 76 -64 64 -88 79 -104 62z"/>
 <path d="M3675 3230 c-3 -5 -3 -21 1 -35 5 -19 12 -25 35 -25 24 0 29 4 29 23 0 13 -5 28 -12 35 -14 14 -44 16 -53 2z"/>
 <path d="M3080 2680 c-16 -14 -37 -20 -68 -20 -37 0 -49 -5 -73 -32 -37 -38 -25 -57 20 -34 28 15 34 15 61 1 16 -8 32 -15 35 -15 12 0 95 83 95 95 0 12 -21 25 -39 25 -4 0 -18 -9 -31 -20z"/>
 <path d="M2691 2412 c-7 -14 -6 -24 4 -38 16 -23 25 -16 28 21 2 33 -18 44 -32 17z"/>
 </g>

</svg>